<svg width="96" height="96" viewBox="0 0 96 96" fill="none" xmlns="http://www.w3.org/2000/svg">
<path d="M71.3427 49.6086L58.1079 72.5291C55.9956 76.1867 53.127 78.4402 53.127 78.4402H70.187C74.4104 78.4402 78.3129 76.1867 80.4252 72.5291L93.66 49.6086H71.3427Z" fill="#007AFF"/>
<path d="M53.6438 72.5291L66.8785 49.6086H40.6249C36.4148 49.6086 32.5219 51.8476 30.406 55.4871L17.0566 78.4402H43.4055C47.6289 78.4402 51.5315 76.1867 53.6438 72.5291Z" fill="#34C759"/>
<path d="M72.7043 40.4405L85.9391 17.52H59.6855C55.4753 17.52 51.5825 19.759 49.4666 23.3985L36.1172 46.3516H62.4661C66.6895 46.3516 70.592 44.0981 72.7043 40.4405Z" fill="#FF9500"/>
<path d="M42.2311 29.2758L38.8124 23.3985C36.6964 19.759 32.8036 17.52 28.5934 17.52H2.33984L15.5746 40.4405C17.6869 44.0981 21.5894 46.3516 25.8128 46.3516H32.3608L42.2311 29.2758Z" fill="#FF3B30"/>
</svg>
